<svg t="1717836090859" class="icon" viewBox="0 0 1024 1024" version="1.1" xmlns="http://www.w3.org/2000/svg" p-id="2608" width="200" height="200"><path d="M512 597.333333a42.666667 42.666667 0 0 1 42.666667 42.666667v117.333333a42.666667 42.666667 0 1 1-85.333334 0V640a42.666667 42.666667 0 0 1 42.666667-42.666667z" p-id="2609" fill="#d4237a"></path><path d="M64 170.666667a85.333333 85.333333 0 0 1 85.333333-85.333334h725.333334a85.333333 85.333333 0 0 1 85.333333 85.333334v426.666666a85.333333 85.333333 0 0 1-85.333333 85.333334H149.333333a85.333333 85.333333 0 0 1-85.333333-85.333334V170.666667z m810.666667 0H149.333333v426.666666h725.333334V170.666667zM473.642667 770.773333a42.666667 42.666667 0 0 0 20.842666 56.64l184.746667 85.333334a42.666667 42.666667 0 0 0 35.797333-77.482667l-184.746666-85.333333a42.666667 42.666667 0 0 0-56.64 20.842666z" p-id="2610" fill="#d4237a"></path><path d="M269.525333 896.490667a42.666667 42.666667 0 0 0 56.618667 20.842666l184.746667-85.333333a42.666667 42.666667 0 0 0-35.776-77.461333l-184.746667 85.333333a42.666667 42.666667 0 0 0-20.842667 56.618667zM638.869333 288c-6.869333 0-12.906667 2.858667-17.92 7.125333a24.533333 24.533333 0 0 0-7.978666 11.669334 24.789333 24.789333 0 0 0-6.656-10.666667 27.178667 27.178667 0 0 0-19.242667-7.317333h-119.936c-7.104 0-13.653333 2.304-19.008 7.104l-0.128 0.106666-0.106667 0.106667c-5.333333 5.098667-7.893333 11.712-7.893333 18.922667 0 2.346667 0.256 4.629333 0.768 6.826666a69.76 69.76 0 0 0-21.504-22.784 56.426667 56.426667 0 0 0-32.128-10.282666H325.546667c-7.488 0-14.208 2.752-19.477334 8.106666a26.666667 26.666667 0 0 0-7.68 19.221334v157.866666c0 7.082667 2.24 13.653333 6.976 19.050667l0.106667 0.128 0.106667 0.106667c5.034667 5.418667 11.626667 8.042667 18.88 8.042666 7.296 0 14.016-2.538667 19.157333-8.042666 5.013333-5.397333 7.168-12.138667 7.168-19.285334V433.066667h36.330667c11.456 0 22.186667-3.413333 32.085333-9.941334l0.128-0.085333c9.813333-6.698667 17.6-15.594667 23.402667-26.474667a74.752 74.752 0 0 0 8.810666-35.626666 74.666667 74.666667 0 0 0-5.504-28.629334 27.178667 27.178667 0 0 0 21.12 9.28h31.722667v132.437334c0 7.466667 2.666667 14.186667 7.936 19.52l0.128 0.106666 0.106667 0.106667c5.482667 5.226667 12.373333 7.594667 19.776 7.594667 7.424 0 14.293333-2.346667 19.861333-7.402667l0.106667-0.106667 0.128-0.106666a26.666667 26.666667 0 0 0 8.405333-19.712v-132.437334h31.744c6.976 0 13.632-2.026667 18.986667-6.826666l0.128-0.106667 0.128-0.106667a24.746667 24.746667 0 0 0 6.698666-10.794666c0.277333 0.853333 0.618667 1.706667 1.002667 2.538666l66.624 158.165334 0.064 0.149333c2.090667 4.736 5.184 8.896 9.450667 11.989333l0.362666 0.256 0.362667 0.213334c4.138667 2.517333 8.682667 3.989333 13.546667 4.266666l0.298666 0.021334h0.32c5.376 0 10.389333-1.536 14.890667-4.373334 4.8-3.050667 8.32-7.338667 10.709333-12.416l0.085334-0.192 66.816-158.037333c1.536-3.648 2.453333-7.509333 2.453333-11.52 0-7.530667-3.093333-14.058667-8.533333-19.029333a26.88 26.88 0 0 0-18.88-7.488c-5.333333 0-10.261333 1.621333-14.613334 4.544-4.522667 3.072-7.829333 7.253333-10.026666 12.202666l-0.085334 0.213334-4.416 11.52-35.84 93.184-44.032-104.746667a32.128 32.128 0 0 0-1.322666-2.773333 27.093333 27.093333 0 0 0-8.768-9.877334 25.856 25.856 0 0 0-14.613334-4.544z m-288.085333 92.586667v-39.04h36.352c0.128 0 1.024 0 2.858667 1.642666l0.213333 0.213334 0.256 0.213333c1.792 1.429333 3.52 3.605333 4.906667 6.954667l0.106666 0.234666 0.106667 0.213334c1.493333 3.114667 2.218667 6.4 2.218667 9.92 0 3.541333-0.746667 6.933333-2.282667 10.325333l-0.085333 0.170667a19.648 19.648 0 0 1-5.226667 7.317333l-0.213333 0.213333c-1.834667 1.621333-2.730667 1.621333-2.858667 1.621334h-36.352z" p-id="2611" fill="#d4237a"></path><path d="M251.946667 288.810667c-7.530667 0-14.464 2.56-19.904 7.978666-5.397333 5.226667-8.042667 11.946667-8.042667 19.349334v157.866666c0 7.253333 2.453333 13.930667 7.466667 19.306667l0.213333 0.213333 0.213333 0.213334c5.397333 5.162667 12.16 7.594667 19.52 7.594666 7.210667 0 13.717333-2.56 19.050667-7.402666l0.106667-0.106667 0.106666-0.106667a26.666667 26.666667 0 0 0 8.426667-19.712v-157.866666c0-7.402667-2.645333-14.122667-8.064-19.349334a26.410667 26.410667 0 0 0-19.093333-7.978666z" p-id="2612" fill="#d4237a"></path></svg>